<svg xmlns="http://www.w3.org/2000/svg" viewBox="0 0 975.9 691.1"><g fill="#231f20" fill-rule="evenodd"><path d="M314.791 4.388c1.736 5.4-4.314 8.919-1.35 14.4 15.02.304 30.46.671 47.25 0 4.481-.179 8.934-1.018 13.5-1.35 5.954-.433 12.02.401 18 0 6.029-.404 12-1.536 18-1.8 2.86-.125 5.715.095 8.55 0 1.978-1.472.029-6.871 1.35-9 2.651-.388 3.348 2.476 4.05 4.05.89 1.994 1.261 4.44 1.8 6.3 1.104 3.809 3.101 7.578 4.5 11.25 2.286 6.006 4.945 11.2 6.3 18 .424 2.128.31 4.555.9 6.75.841 3.13 5.054 6.342 1.8 9.9-5.922.965-4.199-8.252-6.75-12.15-.54-.825-1.984-1.562-2.7-2.7-.341-.543-.085-1.26-.45-1.8-.724-1.07-1.546-2.065-2.25-3.15-.706-1.09-1.112-2.211-1.8-3.15-.874-1.192-2.391-2.312-3.6-3.6-1.336-1.422-1.935-2.862-3.15-3.6-.854-.519-2.8-.804-4.5-1.35-1.398-.449-2.83-1.188-4.05-1.35-5.098-.678-12.23 0-18.45 0-6.185 0-12.67-.841-15.75 2.7-1.075 14.3.396 27.46-.45 42.75-.115 2.07-.84 4.19-.9 6.3-.069 2.414.425 5.245.45 7.65.029 2.808.103 5.37 0 8.1-.187 5.01-.602 10.03-.45 14.85.15 4.712 1.041 9.425.9 13.95-.121 3.914-.997 7.279-2.7 10.35-.419 1.719 1.736 2.982 2.25 4.95.868 3.32 0 7.739 0 13.05 0 3.398.196 7.12 0 10.35-.107 1.772-.736 3.544-.9 5.4-.412 4.659.236 6.264-1.35 9-.605 1.044-1.549 1.909-2.25 3.6-.329.794-1.626 2.34-1.35 4.05 1.738 1.536 4.84-.2 8.1-.45 3.404-.262 7.249-.298 9.45 1.35.81 1.85-1.671 2.22-2.7 2.7-3.079 1.435-6.329 1.455-10.35 2.25-1.645.325-3.012 1.162-4.5 1.35-1.459.184-3.112-.204-4.5 0-2.188.32-4.541 1.432-6.75 1.8-1.156.192-2.385-.136-3.6 0-4.32.485-8.732 3.119-12.15.9-.051-2.248-.084-3.661.9-5.4.451-.799.949-1.34 1.8-2.25.741-.794 1.009-2.15 1.8-3.6.399-.733 1.42-1.37 1.8-2.25.218-.505-.161-1.271 0-1.8.081-.265.824-.699.9-.9 1.632-4.282 2.016-9.424 2.25-16.2.12-3.46-.146-7.138 0-10.8.339-8.464 1.384-16.76.9-25.2-.839-14.63 1.515-30.1.9-44.1-.314-7.132-.383-12.7.45-19.8.223-1.895.853-3.924.9-5.85.06-2.416-.488-4.914-.45-7.2.027-1.69.282-3.685.45-5.4.17-1.741.079-3.934.45-5.4.764-3.021 3.648-5.375 3.15-8.55-2.265-2.165-5.882-1.335-8.55-1.35-3.151-.016-6.379-.17-9.45 0-2.264.125-4.605.779-6.75.9-1.056.06-1.848-.439-2.7-.45-3.596-.046-9.218 1.314-12.6 2.25-3.679 1.018-6.121 2.389-9.45 4.05-3.372 1.682-6.476 2.629-9.45 4.95-1.789 1.396-3.42 3.322-5.4 4.95-.6.494-1.436.951-1.8 1.35-1.765 1.936-2.299 6.532-6.3 5.85-2.884-4.091 2.341-6.52 4.05-9.45.589-1.011.717-2.288 1.35-3.6.785-1.63 2.311-2.868 3.15-4.5.707-1.378.865-3.176 1.8-4.95.291-.553 1-1.202 1.35-1.8.88-1.501 1.905-3.396 3.6-4.5.309-1.394.57-2.704 1.35-4.05.512-.885 1.479-1.795 2.25-3.15.284-.499.175-.909.45-1.35 1.156-1.86 2.162-5.408 3.6-7.65.854-1.331 2.161-4.108 3.6-4.95.33-.42.819-.681 1.35-.9.364.085.449.451.9.45"/><path d="M474.091 81.388c2.241.937 3.276-1.671 4.5-2.7 1.064-.894 2.21-1.66 3.6-2.7.983-.735 2.219-1.244 4.05-2.25 1.975-1.085 3.475-1.681 6.3-2.7 1.176-.424 2.216-1.171 3.15-1.35 5.796-1.111 12.32.089 17.1 1.35 1.722.455 3.604.728 4.95 1.35.38.175 1.428.652 1.8.9.168.111.304.833.45.9.188.085.76-.139.9 0 .275.272.171 1.099.45 1.35.649.583 1.686.82 2.25 1.35 3.114 2.93 3.936 4.715 5.85 8.55.694 1.389 1.759 3.088 2.25 4.5.624 1.79.881 4.08 1.35 6.3.429 2.028 1.162 4.47 1.35 6.3 1.309 12.78-1.255 27.3-.9 40.05.279 10.04.295 19.17-.45 29.25-.475 6.418-1.006 12.1 2.25 15.75.965 1.082 2.675 1.635 4.5 2.7 1.531.893 2.901 2.324 4.05 2.7 2.925.958 6.319-.075 8.55 1.8 2.592.161 5.686-1.48 6.75.9-.259 5.172-6.761 2.839-9.9 2.7-6.518-.287-13.92-.67-20.7 0-4.454.44-11.24 2.08-16.2 0-1.639-2.248-.925-5.364-.9-8.1.028-3.106-.16-6.24 0-9.45.219-4.386 1.138-8.93 1.35-13.5.113-2.42-.156-4.73 0-7.2.131-2.08.813-4.31.9-6.3.147-3.384-.626-6.831 0-9.9.424-2.076 1.67-3.64 2.25-5.4.369-1.622-1.859-3.415-2.25-5.4-.606-3.072.438-6.524.45-10.35.016-4.844-.682-11.11-1.35-15.75-.456-3.176-.652-5.704-1.35-8.55-.526-2.148-.932-4.16-1.35-6.3-.224-1.148-.2-2.436-.45-3.15-.221-.635-.825-.975-1.35-1.8-.432-.68-.486-1.626-.9-2.25-.354-.534-.895-1.184-1.35-1.8-1.628-2.202-5.779-4.972-10.35-4.5-3.309.341-4.992 2.66-7.2 4.5-.37.31-1.009.132-1.35.45-.473.44-.989 1.465-1.8 2.25-.998.964-2.07 1.82-3.15 2.7-.896 3.23-3.015 5.62-4.5 8.55-.253.499-.152 1.119-.45 1.8-.096.219-.853.739-.9.9-.537 1.808-.052 3.755-.45 5.85-.044.232-.864 1.189-.9 1.35-.359 1.599-.481 3.248-.9 4.95-.972 3.96-2.186 7.485-2.25 13.05-.016 1.469.429 2.93.45 4.5.05 3.565-.73 7.376-.9 11.25-.464 10.56-1.304 26.2-.45 36.9.165 2.079 1.108 4.22.9 6.3-.174 1.739-1.394 3.098-1.8 4.95-1.451.799-2.802 1.698-3.15 3.6.618 1.632 2.965 1.535 4.5 2.25 1.695.304 2.604 1.59 4.5 1.8 3.072.34 6.83-2.254 9.45 0-.269 5.048-5.361 3.455-9 3.6-1.885.075-3.764.642-5.85.9-1.141.141-2.431-.166-3.6 0-.792.112-1.465.797-2.25.9-4.201.552-8.761.424-12.6.9-1.174.145-2.356.661-3.6.9-1.301.25-2.898.201-4.05.45-2.169.468-4.754 2.626-6.75.45-.258-3.485 2.626-5.431 4.5-7.65.307-.364.1-1.044.45-1.35.35-.306 1.062-.095 1.35-.45 1.059-1.308 2.059-3.325 3.15-4.95.769-1.144 2.568-2.841 3.15-4.5.454-1.292.624-3.124.9-4.95 1.208-7.988.9-18.34.9-27.9 0-1.916.061-4.121 0-5.85-.125-3.531-.626-6.058.45-9.45.461-1.454 1.364-2.291 1.35-3.6-.021-2.184-2.365-4.505-2.7-6.75-.254-1.7.352-3.486.45-5.4.309-6.078.08-13.26 0-19.35-.038-2.898.766-6.06.9-9 .2-4.394-.188-9.06 0-13.5.175-4.17.891-8.174.9-12.15.004-1.626-.43-3.244-.45-4.95-.061-5.126.994-11.28 1.35-17.55.202-3.556 0-7.248 0-10.8 0-3.96-.635-8.264 0-10.8.605-2.418 3.429-3.475 4.05-6.3-.501-2.2-4.738-.663-6.3-1.8-2.638-.511-3.948-2.352-5.4-4.05-2.151-.409-5.65-1.836-4.95-3.6.015-1.855 2.302-1.142 3.6-1.35 4.011-.644 9.064.131 13.95 0 3.178-.085 6.164-.904 8.55-.45 2.205.419 5.435 2.599 6.3 4.05 1.986 3.336 1.251 13.72.9 22.05-.178 4.224-.261 8.295-.45 11.7-.13 2.346-.781 5.295-.9 7.2-.695 11.18-.734 21.78.45 30.15M620.594 71.188c-.538.025-1.064.088-1.594.156-1.178.15-2.205 1.025-3.594 1.344-1.411.323-3.15.05-4.5.437-.248.071-.985.758-1.375.906-.572.218-1.795.239-2.25.469-1.158.586-1.763 2.25-3.125 2.25-.751.511-1.895.575-2.718.875-3.188 1.161-4.396 2.545-6.75 4.5-3.582 2.972-6.982 6.146-9.907 9-.771.752-1.07 1.429-1.781 2.25-3.949 4.558-7.945 9.61-10.344 14.406-.795 1.59-.606 2.985-1.375 4.5-.991 1.955-2.977 3.489-4.031 5.407-.265 1.916.311 2.976.438 4.5-2.116 4.56-2.508 11.182-3.157 17.093-.632 5.76-1.235 12.323-.875 18.907.093 1.69.147 3.894.438 5.406.218 1.13 1.027 2.022 1.344 3.156 1.19 4.265 1.054 7.756 2.718 10.781 1.675 1.475 4.413 1.875 5.844 3.594v6.313c1.975 1.958 4.033 4.716 5.844 6.312.372.33.908.134 1.344.438.373.26.52 1.078.906 1.343.391.269 1.002.257 1.344.469 1.13.704 2.432 1.115 3.593 1.781 1.821 1.044 2.995 2.663 4.5 3.157 2.169.711 5.217.306 7.657.906.93.229 1.894 1.044 2.718 1.344 4.035 1.471 7.297 1.138 11.688.906 2.35-.124 4.684.231 6.75 0 2.065-.231 4.528-1.301 6.75-1.813 2.5-.576 5.107-.627 7.187-1.343.755-.26 1.69-1.267 2.719-1.813 1.03-.546 2.232-.776 3.156-1.344.366-.225.503-1.095.875-1.343.541-.362 1.283-.082 1.813-.438 2.135-1.438 3.099-3.165 4.937-4.5.891-.648 1.907-1.149 2.719-1.812 1.844-1.506 3.772-3.024 4.938-4.5.918-1.168 1.714-3.122 2.718-4.5.506-.692 1.219-1.109 1.782-1.813.31-.387.164-.909.468-1.344.256-.366 1.109-.513 1.344-.906.428-.712.516-1.796.906-2.687 1.172-2.684 4.069-5.826 3.125-9-2.469-2.862-6.683-1.99-8.093 0-1.5 2.116.086 4.706-.438 7.656-1.496 3.254-4.804 6.612-8.562 9.437-1.91 1.434-4.48 2.673-6.75 4.063-2.476 1.515-4.688 3.128-7.188 4.031-3.774 1.363-9.194 2.009-13.5 2.25-6.62.37-13.632-1.442-17.094-3.594-.414-.257-.931-.145-1.375-.437-2.278-1.5-3.626-3.626-6.281-4.5-1.102-3.059-4.592-4.534-6.312-7.656-.956-1.734-1.653-4.807-2.688-7.657-.998-2.748-2.403-5.515-2.719-8.093-.61-4.97-.391-11.455 0-16.657.389-5.164.572-11.081 4.5-13.5 4.39.131 8.491-.64 12.157-1.343 1.38-.266 2.841-.881 4.062-.907 1.598-.035 3.398.785 4.938.907 5.32.417 10.669-1.427 16.218-.438 0 0 3.533-.044 5.375-.906 6.43.304 12.81-1.449 19.375-1.813 6.349-.351 12.254.851 13.938-3.593.644-1.7.056-2.846 0-4.5-.152-4.48-.252-8.827-1.344-12.157-.761-2.324-2.785-4.201-3.156-6.281-.366-2.045.274-4.164 0-5.406-.784-3.546-4.396-6.151-5.406-9.469-2.646-2.251-5.658-5.814-9-7.625-.966-.522-2.138-.925-3.157-1.375-2.056-.909-4.372-2.252-6.281-2.687-1.435-.328-3.555-.175-5.406-.438-3.334-.471-7.236-1.244-11-1.062zm-1.063 8.406c1.263-.03 2.604.031 3.969.281 1.11.202 2.605 1.374 4.5 2.25 3.214 1.486 4.762 2.072 7.188 4.5 1.94 1.94 2.344 2.538 3.593 4.969.108.207.859.75.907.906a.97.97 0 0 1 .031.375c.006.204-.069.434-.094.656v.063a.659.659 0 0 0 .063.25c.696 1.47 1.833 2.65 2.25 4.031.11.369.15.787.187 1.219.025.291.05.596.063.906.002.065-.003.122 0 .188.012.327.04.662.062 1 .026.4.086.786.156 1.187.215 1.227.558 2.677.75 4.156.054.412.107.835.125 1.25.004.062-.002.126 0 .188a9.26 9.26 0 0 1 0 .5c0 .072.002.146 0 .219a9.314 9.314 0 0 1-.031.5c-.107 1.494-.558 2.929-1.75 4.187-13.15 1.798-29.269 2.13-43.219 2.719-2.811.119-6.077 1.383-8.531-.469a6.351 6.351 0 0 1-.219-1.531c-.008-.161-.002-.338 0-.5.049-3.111 1.966-6.551 3.375-9.844.722-1.689 1.493-3.681 2.25-5.406.424-.966.835-1.66 1.344-2.719.836-1.735.991-2.386 2.25-4.031.928-1.211 2.225-2.206 3.594-3.594 3.349-3.394 3.612-4.418 8.094-6.313 2.077-.878 5.304-2.002 9.093-2.093zM204.991 265.388c-4.055-1.102-3.436-6.155-4.5-9.45-.383-1.184-1.348-2.461-1.8-3.6-.338-.85-.169-1.525-.45-2.25-.915-2.362-3.514-5.409-4.5-8.1-2.456-1.9-4.828-4.102-7.65-5.85-2.675-1.656-5.681-3.725-9-4.5-3.666-.855-10.71-.333-16.65-.45-9.594-.19-15.95-.227-27.45 0-4.582.09-10.5.113-12.15 1.8-2.371 2.425-1.574 20.01-1.8 24.75-.227 4.774 0 9.379 0 13.5 0 4.705.531 8.815.45 12.6-.077 3.631-1.012 7.466-1.35 11.25-.992 11.12 0 23.68 0 36 0 8.162.45 16.46.45 24.3 0 8.355-.567 16.29-.9 23.85-.184 4.184.541 8.082-.9 11.7-.642 2.206-5.23.469-5.85 2.7-.96 4.208 4.084 3.259 5.4 5.85.615 1.21.388 4.06.45 7.2.043 2.188.109 4.911 0 7.2-.339 7.128-.956 13.74-.9 20.25.025 3 .686 5.944.9 8.55.22 2.688-.439 5.692 1.35 7.65 4.006 2.788 10.46 1.429 16.2.9 2.759-.254 5.8-1.576 7.2 1.35-1.041 3.595-4.976 2.411-7.65 2.7-2.692.29-5.805.955-8.55 1.35-2.752.396-5.624.991-8.55 1.35-3.071.378-6.37.104-9.45.45-1.372.154-2.582.738-4.05.9-3.949.439-9.202.361-13.95.9-4.305.488-7.89 1.689-12.15 2.7-2.915.691-7.418.983-11.7.9-.23 0-1.019-.566-1.8-.45-.554.082-3.309 1.478-4.05-.45.135-3.162 3.826-1.648 6.3-2.25 2.292-.557 4.701-2.092 7.2-3.6 1.3-.785 2.282-1.488 3.6-2.25 1.426-.826 2.504-1.878 4.05-3.6.789-.877 2.23-1.916 2.7-2.7.612-1.021 1.039-3.166 1.8-4.95 1.424-3.334 2.358-5.048 3.15-9.9.145-.891.265-1.758.45-2.7.176-.901.372-1.872.45-2.7.757-8.058.502-17.96.9-27.9a1176 1176 0 0 0 .45-13.95c.133-4.755.89-9.519.9-13.5.016-6.546-.54-12.32 0-18.9.154-1.875.086-4.324.45-5.85.543-2.279 1.985-3.775 3.15-5.85-.664-1.938-2.729-3.494-3.15-5.4-.846-3.824-.22-12.99 0-18 .138-3.136.879-6.209.9-9 .015-1.955-.439-3.848-.45-5.85-.02-3.462.716-7.371.9-11.25.501-10.6.433-24.87.45-34.65.01-5.325-.917-10.64 0-13.95.698-2.516 2.966-3.262 4.5-5.4.903-1.258.861-2.496 1.35-3.6.548-1.234 2.008-1.699 1.35-3.15-2.578-2.296-6.35-1.35-9.45-1.35-8.264 0-17.59-.084-25.65.45-3.589.238-5.232.69-8.1-.9-1.301-.722-1.826-1.608-3.15-1.8-.645-.094-1.989.23-3.15.45-2.776.526-6.401 1.108-9 1.8-1.88.501-3.666 1.426-5.4 1.8-4.18.901-6.54.769-9.9 2.7-.428.246-1.008.874-1.8 1.35a209.492 209.492 0 0 1-5.4 3.15c-1.168.658-2.723 1.184-3.6 1.8-2.035 1.43-3.728 3.535-5.4 5.4-1.639 1.829-3.037 4.672-6.3 4.05-.935-1.159-.794-2.438-.45-3.6.182-.617.971-.68 1.35-1.35.756-1.338 1.158-3.454 2.25-4.95.665-.912 1.715-1.278 2.25-2.25 1.042-1.899 1.15-4.466 2.25-6.75.526-1.095 1.638-2.058 2.25-3.15 1.212-2.171 2.32-4.629 3.6-7.2.564-1.134 1.407-2.601 1.8-3.6.597-1.518.643-3.578 1.35-5.4.528-1.362 1.715-2.698 2.25-4.05 1.042-2.635 1.088-7.832 5.85-7.2 4.322 1.604-.647 9.089.45 12.6.87 2.785 3.528 3.722 8.1 4.05 10.26.735 26.16-.056 36-.45 12.02-.48 24.17.571 36.45 0 3.809-.177 7.593-.887 11.25-.9 4.552-.015 9.296.45 13.95.45 5.183 0 10.12-.461 14.4 0 2.332.251 5.586 1.86 7.2 1.8 1.766-.065 3.35-1.816 5.85-2.25 6.053-1.049 14.13 1.269 17.55-.9 3.15-7.288-4.994-12.4-3.6-19.35 3.835-2.799 5.87 1.892 7.65 6.3.91 2.254 1.676 4.408 2.7 6.75.746 1.704 1.883 4.061 2.7 6.3.332.905.137 1.902.45 2.7.613 1.56 2.322 4.154 3.15 6.3.612 1.581.773 3.045 1.35 4.5.272.683.98 1.02 1.35 1.8.307.643.143 1.628.45 2.25.307.62 1.016.718 1.35 1.35.348.656.163 1.572.45 2.25.648 1.526 1.44 2.701 1.8 4.05.4 1.486.475 3.059.9 4.5.902 3.048 2.862 6.541 4.05 9.9 1.296 3.659 2.87 7.674-.45 9.9M750.791 271.388c-.05 13.48 0 26.25 0 40.5-.001 4.142-.349 8.435 1.35 12.15 1.516.606 2.436 1.195 4.05 1.35 1.62.155 3.21-.383 4.95-.45 8.76-.339 19.09-.25 27.45-.9 3.712-.289 7.566-.05 9.9-2.25 1.111-7.558.054-15.44.45-23.4.306-6.16 1.45-11.47 0-16.65-.561-2.005-.849-4.965-1.35-8.1-.59-3.681-1.699-6.466-3.6-9-1.908-1.034-4.47-1.429-6.75-2.25-2.079-.749-4.861-1.318-5.4-3.6 1.374-3.155 5.806-2.419 9-2.7 1.75-.154 3.46-.297 5.4-.45 1.575-.124 3.315-.754 4.95-.9.738-.066.774.486 1.35.45 5.196-.327 14.61-.805 21.15-.45 1.602.088 3.362.471 4.95.45 3.139-.043 6.292-1.649 9 0 .998 3.552.431 3.858-1.8 5.4-.452.313-.757.679-1.35.9-2.589.964-6.392.083-8.55 1.35-2.004 1.178-2.252 3.588-3.15 7.65-.652 2.959-1.976 6.384-2.25 8.55-.27 2.13.108 4.316 0 6.75-.111 2.516-.756 5.301-.9 8.1-.654 12.74.568 27.84-.45 41.85-.316 4.354-.146 11.17-.45 16.65-.12 2.175-.886 4.536-.9 6.75-.015 2.345.755 4.404.9 6.75.229 3.688-.531 7.371-.451 10.8.046 1.892.716 3.659.901 5.85.728 8.6-1.595 21.46.45 29.7 3.046.171 3.699-2.06 6.75-2.25 1.934-.12 4.494 1.086 6.75 1.8 3.084.975 5.058 1.185 5.4 3.15.403 2.316-1.415 3.895-3.6 4.5-2.214.613-5.689-.082-7.65 0-3.288.138-6.904.729-10.8.9-5.761.254-11.61-.655-17.55 0-4.245.469-8.208 1.976-13.5 1.35-1.241-.146-2.792.229-3.15-1.35-.1-1.856 2.202-2.218 3.15-2.7 1.446-.737 2.889-1.01 4.05-1.8 1.261-.858 2.544-2.232 3.6-3.6 1.16-1.501 2.924-3.546 3.15-5.85.294-2.998.188-7.18.45-11.25.218-3.386.9-6.928.9-10.35 0-2.68-.579-5.084-.45-7.65.175-3.515 1.282-7.486 1.35-10.8.054-2.615-.761-4.971-.9-7.65-.065-1.24.434-2.676.45-4.05.021-1.736-.482-3.254-.45-4.95.075-3.971 1.295-8.371.45-11.7-.639-2.519-3.938-5.484-8.1-5.4-1.348.027-3.245.621-4.95.9-2.87.469-6.134.85-9.9 1.35-1.481.198-2.934.75-4.5.9-5.95.571-16.15.454-18.45 4.05-1.225 1.92-.9 7.008-.9 11.7 0 4.182-.156 8.601 0 12.15.231 5.275 1.391 11.11 0 14.85-.609 1.634-2.138 2.476-3.15 3.6-.307.341-2.672 1.561-2.7 3.6-.034 2.632 3.002 3.46 4.05 5.85.634 1.449 1.162 4.954 1.35 7.2.263 3.166-.194 6.529 0 10.35-1.058 1.599-1.371 3.165-2.25 4.95-.826 1.679-2.628 2.775-2.25 4.95.999 5.755 14.14 1.982 18 4.05.259 4.231-3.612 4.421-7.65 4.95-1.26.165-2.646.439-3.6.45-2.638.033-4.379-.731-7.2 0-.777.2-1.455.835-2.25.9-1.464.12-3.486-.455-4.95-.45-9.096.035-18.65 3.19-26.55 2.25.103-3.881 3.965-3.782 5.4-4.95.889-.724 1.342-2.124 2.25-3.15.88-.995 2.07-1.638 2.7-2.7 1.176-1.982 2.289-5.976 3.6-8.55.909-1.782 1.144-2.874 1.8-5.85.255-1.158.793-2.229.9-3.15.464-3.964 0-8.424 0-13.05 0-4.288.185-8.834 0-13.05-.297-6.792-1.452-13.05-1.8-20.7-.252-5.545-.806-12.05 0-16.65.378-2.155 1.731-3.268 2.25-5.4-.024-1.759-1.13-3.136-1.35-5.4-.212-2.191.466-4.881.45-7.65-.012-2.219-.705-4.521-.9-7.2-.93-12.78.08-27.54 0-42.3-.04-7.395-.605-15.07-3.15-17.1-.361-.287-.596-.159-.9-.45-1.755-1.682-7.358.134-9-3.15-.087-2.949 3.061-3.065 5.4-3.6 4.984-1.14 10.16-.947 16.2-1.35 2.516-.167 5.181-.76 7.65-.9 6.78-.386 13.77-.282 18.9-1.8 2.058-.609 5.04-.752 5.85 1.35.89 2.311-.486 4.484-2.7 5.4-1.661.688-5.581.11-7.2.45-4.524.949-6.866 2.79-9 4.95-.166 2.156 1.512 3.71 1.8 5.85.314 2.335-.935 4.52 0 6.75M445.691 251.388c.138 2.538-2.265 2.535-4.05 3.15-1.375 1.535-2.928 2.21-3.6 3.6-.706 1.461-.751 3.771-.9 5.85-.321 4.481-1.746 17.6.9 20.25.462.463 1.63.251 2.25.9 3.228 3.378 2.559 7.612-1.35 10.8-.844.689-2.221 1.469-2.7 3.15-.68 2.386 0 7.655 0 12.6 0 5.43-.23 11.2-.45 16.2-.529 12.04.042 22.69-.9 34.2-.576 7.041.034 14.11.45 20.7.524 8.285 1.854 16.32.45 22.95-.458 2.162-2.374 4.336-1.35 6.75 1.692 1.482 4.346.936 6.3.9 9.998-.188 21.38-1.872 31.5-2.7 6.528-.534 12.38-1.42 17.55-3.15 3.975-1.331 7.189-3.015 10.8-4.95 1.768-.946 3.738-2.544 5.85-1.8 1.145 3.352-2.224 5.39-2.25 9-1.645 1.539-2.592 3.74-3.6 5.85-.823 1.722-1.234 3.87-2.7 5.4-.493.514-1.156 2.421-1.8 3.6-.541.99-1.219 1.75-1.8 2.7-.28.456-.11 1.228-.45 1.8-.571.961-2.359 2.21-4.05 2.7-2.282-.472-1.775-4.612-3.6-5.85-1.052-.714-4.809-.713-7.65-.9-6.14-.405-16.26-.05-24.3-.45-5.862-.291-12.57-1.162-19.35-1.35-7.355-.205-14.48-.254-20.25 0-3.665.161-7.425 1.438-9.9-.45-.381-3.251 2.674-5.27 4.05-8.1.94-1.934 1.714-4.709 2.25-7.2.292-1.358.19-2.916.45-4.5.191-1.165.807-2.506.9-3.6.36-4.266.181-8.55.45-12.6.339-5.089 0-10.82 0-16.2 0-5.419.49-10.86.45-15.75-.043-5.338-1.03-12.86 2.25-16.65-.498-1.749-1.542-3.332-1.8-5.4-.275-2.204.321-4.73.45-7.65.212-4.841-.195-10.39-.45-16.2-.228-5.172.217-10.59 0-15.75-.228-5.4-.759-10.53-.45-14.4.31-3.878 1.94-6.939 3.15-9.9-.168-2.042-2.008-1.606-3.15-2.7-.16-.154-1.28-.849-1.8-1.35-1.594-1.532-2.424-3.998-4.05-5.4-2.52-2.171-6.601-2.666-7.65-6.3 2.379-5.116 10.27-2.7 18-2.7 6.452 0 15.95-.599 22.95 0 1.696.145 3.869-.559 4.95.9"/><path d="M520.891 265.388c-1.181 4.61.235 9.216.45 13.95.268 5.892-.266 11.94 0 18 .372 8.466 1.972 17.08 1.35 25.65-.869 11.97.339 27.48-1.35 40.5-1.535 1.878-3.854 2.495-4.95 4.95-.626 1.404-.64 3.362-.9 5.4 2.884 1.724 4.258-2.062 7.65-1.8 1.882.145 6.915 3.865 6.3 6.75-.83 3.896-10.08 2.93-17.1 3.6-1.649.157-3.545.844-4.95.9-1.57.062-3.264-.424-4.95-.45-3.136-.051-6.741 1.445-8.55-.45-.165-3.021 2.755-4.849 4.05-7.65.247-.536.141-1.442.45-2.25 1.825-4.788 3.735-10.87 4.5-17.55.307-2.688.447-5.82.9-9 .251-1.764.567-3.078.45-4.5-.153-1.85-1.47-3.341-1.8-5.4-.931-5.8.635-15.11 0-23.85-.329-4.525-.079-13.1-.45-18-.29-3.815-1.315-7.241-.9-9.9.126-.809 1.089-2.94 1.8-4.05.589-.918 1.714-1.452 1.8-2.7-.22-2.33-3.188-1.912-4.5-3.15-1.654-4.852-2.465-6.114-6.3-9.45-1.431-1.245-3.84-2.28-3.6-4.05.301-2.222 4.308-2.619 7.65-3.15 5.715-.91 15.34-.139 22.05-.45 4.728-.22 13.39-1.796 13.5 3.15.065 2.994-2.511 3.656-5.4 4.05-1.094.149-2.752-.613-4.05-.45-1.562.196-2.074.637-3.15 1.35M289.091 359.388c1.166 1.096 1.312-.755 1.8-1.35.819-.998 1.446-1.762 2.25-3.15.451-.777 1.735-2.084 2.25-3.15.733-1.219.125-2.756.45-4.05.06-.24.849-.731.9-.9.512-1.694 1.085-3.544 1.8-5.4.824-2.139 2.418-5.792 3.15-8.55.172-.65.221-1.658.45-2.25.837-2.168 2.728-4.044 3.6-6.3.775-2.004.976-4.439 1.8-6.75.357-1.004.983-2.108 1.35-3.15.398-1.13.497-2.235.9-3.15.684-1.552 2.068-2.845 2.7-4.5 1.144-2.994 1.12-6.909 1.8-10.8.601-3.44 1.616-6.436 1.35-9-.214-2.056-1.11-4.179-1.8-5.4-1.381-2.446-4.238-3.229-4.95-6.75 1.956-3.192 6.592-3.221 10.35-3.6 4.175-.421 8.639-.67 13.05-.45 2.244.113 4.566.888 6.75.9 7.142.041 13.62-3.916 19.35-1.35 1.401 3.172-.437 6.78-3.15 7.2-2.77.429-3.988-2.22-6.75-2.7-2.594-.45-5.119.334-7.65 1.35-4.002 1.606-6.755 3.365-7.65 8.55-1.215 1.389-2.57 2.478-3.15 4.05-.599 1.624-.475 3.708-.9 5.4-.199.788-.61 1.454-.9 2.25-.289.795-.122 1.522-.45 2.25-.531 1.181-1.754 2.282-2.25 3.6-.535 1.419-.375 3.198-.9 4.5-.25.619-.996 1.181-1.35 1.8-1.726 3.014-3.236 7.554-4.5 11.25-1.03 3.014-1.815 5.461-3.15 8.1-.576 1.138-1.41 2.068-1.8 3.15-.441 1.224-.047 2.742-.45 4.05-.275.895-1.041 1.824-1.35 2.7-.37 1.051-.572 2.052-.9 3.15-.289.97-.541 2.284-.9 3.15-.637 1.541-1.991 2.532-2.7 4.05-.855 1.831-1.4 4.248-2.25 6.3-.357.864-.92 1.782-1.35 2.7-.851 1.816-1.848 3.692-1.8 6.75-3.724 5.112-5.54 12.67-8.55 19.35-.355.79-1.019 1.499-1.35 2.25-.722 1.635-1.059 3.449-1.8 5.4-.087.23-.85.733-.9.9-.582 1.926-.872 3.849-1.8 6.3-.66 1.744-1.808 2.991-2.25 4.5-.755 2.575.063 8.084-4.05 7.65-2.14-.226-1.479-.911-2.25-2.7-.677-1.57-1.272-4.511-2.25-6.75-.57-1.305-1.56-1.989-1.8-2.7-.539-1.602-.479-3.876-.9-5.85-1.73-8.109-4.914-17.81-7.2-26.1-.48-1.74-.965-3.706-1.35-5.4-.465-2.045-.946-3.676-.9-5.4.071-2.684 1.49-4.2 1.35-6.75-.179-1.621-2.228-1.372-3.15-2.25-2.406-1.906-3.058-5.692-4.05-9.9-.525-2.226-.809-4.802-2.25-6.3-1.7.076-1.322 2.079-1.8 3.15-1.301 2.92-3.115 6.531-4.5 10.35-.409 1.128-.927 2.35-1.35 3.6-.922 2.722-1.464 4.682-2.25 7.65-.381 1.439-.451 3.012-.9 4.05-.991 2.294-3.591 3.734-4.5 5.85-.461 1.074-.594 3.495-.9 4.95-.341 1.621-.447 3.478-.9 4.95-.171.559-1.038 1.032-1.35 1.8-.292.72-.157 1.625-.45 2.25-.664 1.419-1.811 2.441-2.25 3.6-.622 1.645-.705 3.454-1.35 5.4-.48 1.448-1.164 3.008-1.8 4.5-.351.824-1.101 1.51-1.35 2.25-.262.784-.151 1.932-.45 2.7-.582 1.5-1.758 2.736-2.25 4.05-.93 2.484-1.615 6.14-3.15 9.9-2 4.902-3.689 11.63-7.65 6.3-.615-.827-.705-1.968-1.35-3.15-1.858-3.41-3.292-4.349-4.5-7.65-.234-.641-.292-1.009-.45-1.35-.609-1.322-1.32-3.481-2.25-5.4-1.348-2.778-2.725-5.621-4.05-8.55-.674-1.491-1.082-3.122-1.8-4.5-.165-.316-.996-1.121-1.35-1.8-.344-.659-.534-1.609-.9-2.25-.756-1.324-1.911-2.371-2.7-3.6-.41-.64-.484-1.645-.9-2.25-.472-.687-1.021-.741-1.35-1.35-.794-1.47-1.26-3.768-2.25-5.85-.626-1.318-2.439-2.955-2.7-4.95-.286-2.191.901-3.655.45-4.95-.634-1.821-1.166-1.275-2.7-2.25-1.145-.728-2.762-1.924-3.6-3.15-.695-1.016-1.06-2.53-1.8-4.05-1.316-2.704-2.814-5.141-4.05-8.1-.372-.891-.467-2.226-.9-3.15-.83-1.775-2.389-3.288-3.15-4.95-.416-.91-.514-2.125-.9-3.15-.355-.941-1.018-1.83-1.35-2.7-1.414-3.702-1.899-6.534-3.6-9.9-.499-.986-1.368-2.051-1.8-3.15-.494-1.254-.369-2.76-.9-4.05-.786-1.908-1.978-3.421-2.7-5.4-.33-.904-.615-2.058-.9-3.15-.296-1.132-.926-2.518-.9-3.15.103-2.496 2.545-4.306 2.25-6.75-1.465-1.846-3.964-1.121-5.85-2.25-1.526-.912-2.276-2.999-3.6-4.05-1.309-.287-1.015-1.891-1.35-2.25-2.07-2.216-5.225-.722-9.45-.45-3.228.209-6.505.61-7.65-1.8-.904-1.901.873-3.686 3.15-4.5 2.588-.925 5.676.045 7.2 0 2.635-.077 5.518-1.105 8.55-1.35 7.229-.585 15.51-.307 23.4-.9 1.871-.14 3.631-.764 5.4-.9 3.181-.245 6.462-.031 9.45 0 2.851.03 6.318-.667 8.1 1.35-.082 4.868-6.051 3.155-9.45 4.05-3.451.91-5.611 3.379-8.1 4.05-1.314 3.429-1.575 6.915 0 11.7.388 1.179 1.182 2.264 1.8 3.6 1.449 3.138 2.578 7.289 4.05 10.8 1.479 3.526 3.054 6.494 4.5 10.35.269.719.7 1.048.9 1.8.584 2.188 1.78 4.08 2.7 6.3.436 1.054 1.692 2.668 2.25 4.05.378.936.494 2.22.9 3.15.344.785.65 1.519 1.35 2.25.571.596.685 2.188 1.35 3.6 2.888 6.139 6.694 12.61 9.45 19.35.151.37.836 1.119.9 1.35.145.52-.225 1.314 0 1.8.386.833 1.381 1.445 1.8 2.25.49.943.465 2.195.9 3.15 1.662 3.644 3.572 7.264 6.3 9.9 3.491-2.732 3.691-7.7 5.4-12.15.483-1.259 1.689-2.61 2.25-4.5.486-1.641.92-2.805 1.8-4.5.863-1.66 1.678-3.372 2.25-5.85.463-2.004.595-4.026 1.35-5.85.094-.225.85-.735.9-.9 1.746-5.778 2.805-13.27 5.4-18.9.781-1.696 1.562-5.916 2.25-8.1.674-2.142.621-5.05 1.35-7.65.705-2.515 2.465-4.831 3.15-7.2.604-2.086.65-5.636 0-8.55-.415-1.859-1.491-3.785-2.25-5.85-.76-2.07-1.07-4.49-1.8-6.3-1.551-3.845-4.199-6.826-7.65-8.55-1.521-.76-3.682-1.575-5.85-2.25-2.599-.81-5.7-.964-7.65-3.15.784-3.004 4.534-2.458 7.2-2.7 7.916-.719 18.79-1.814 27-2.25 2.86-.152 5.426-.629 7.2.45 1.821 1.108 3.249 5.131 4.05 8.1.925 3.428.846 7.548 1.35 10.35.271 1.511.903 3.198 1.35 4.95.404 1.581.934 3.346 1.35 4.95.968 3.731 1.54 7.684 2.7 9.9.63 1.202 1.085 1.598 2.25 2.7 1.049.993 2.089 1.449 2.25 2.7.208 1.602-2.026 3.846-2.25 5.4-.217 1.508.145 3.52.45 5.4.771 4.748 2.501 8.719 3.6 13.5 1.068 4.648 1.925 9.379 2.7 14.4.526 3.405.826 6.03 1.8 9 .398 1.211.494 3.081 1.8 3.6M851.511 303.388c.938-2.188 5-7.396 9.1-9.584 6.04-3.222 14.78-2.751 23.85-3.15 2.931-.129 6.105-1.329 8.55.45-.184 2.054-1.831 4.074-2.25 6.3-.578 3.069-.186 7.138-.45 11.25-.604 9.425-1.264 23.9-.9 32.4.253 5.92-1.866 12.54-1.35 17.1.234 2.066 1.854 3.92 1.8 5.85-.044 1.604-1.894 3.925-2.25 5.85-.991 5.359.342 12.71 0 20.25-.286 6.29-1.105 12.87-1.35 18.45-.359 8.172.276 14.88-2.7 19.35a62.27 62.27 0 0 1-2.25 3.15c-1.546 2.022-3.016 2.75-4.5 4.05-.734.643-.815 1.035-1.35 1.35-2.415 1.422-7.214 1.035-7.2 5.85 4.756 1.754 6.326-2.724 10.8-3.6 1.445-.284 3.816.189 6.3 0 1.594-.121 3.398-.73 5.4-.9 3.574-.304 7.6.057 11.25-.45 2.496-.346 4.629-1.348 6.75-1.8 4.562-.974 8.336-1.6 12.15-.9 3.012.553 4.964 2.642 7.65 1.8 3.286-1.03 4.539-5.535 2.7-8.55-3.275-2.946-7.274-.295-11.25.45-3.821.716-7.928.95-11.7.45.06-2.114 1.126-4.188 1.351-6.3.429-4.026-.758-7.999-.9-12.15-.061-1.801.481-3.54.45-5.4-.019-1.166-.481-2.389-.45-3.6.076-3.082.759-6.241.9-9.45.161-3.692-.171-7.48 0-11.25.284-6.25 1.068-12.48 1.35-18.9.217-4.968.45-10.32.45-15.3 0-5.531-.698-10.76-.45-16.2.404-8.886.994-20.32 1.35-28.8.149-3.541-.64-7.319.45-10.8 4.909-1.501 10.69-.67 15.75-.9 6.031-.274 11.51-1.502 15.75.45 2.4 1.106 5.578 1.502 7.2 2.25.222.103.899.221 1.35.45 1.586.801 3.665 2.974 4.5 3.6.372.279 1.015.216 1.35.45 2.014 1.404 4.252 3.89 5.849 4.95 2.472 1.64 2.898 5.565 6.751 4.05 1.75-3.605-.956-6.85-2.25-9.9-1.382-3.261-2.419-6.715-3.6-9.9-1.075-2.896-2.345-6.38-3.6-9.45-.564-1.38-1.34-3.174-2.25-4.5-.436-.636-.231-1.748-.9-2.25-1.078-.809-1.596-.242-3.15-.45-2.886.563-.834 6.066-2.7 7.65-17.19 2.08-36.25.61-54.9.45-1.844-.016-3.479.438-5.4.45-7.591.051-15.18-1.432-22.5-.9-4.226.308-8.03 1.74-12.15 1.35-2.02-2.48.554-9.554-3.15-10.35-1.118-.067-1.868.233-2.25.9a90.365 90.365 0 0 0-4.95 6.75c1.27 8.945-2.846 15.09-4.95 22.05-.811 2.681-1.199 5.572-2.25 8.1-.971 2.334-3.616 4.722-1.8 7.65 4.456 1.278 5.138-5.112 9.2-6.05 0 0 2.604-1.666 3.75-4.166"/><path d="M385.391 296.388c-.575 3.731-4.346 4.465-5.85 7.65-2.676 5.669-2.191 12.98-1.8 21.6.185 4.09-.195 8.61 0 13.05.26 5.904 1.514 11.84.9 15.3-.258 1.448-.91 3.04-1.8 4.5-.979 1.608-2.161 1.98-2.25 3.6-.123 2.234 2.152 3.595 2.7 5.85.467 1.922.47 7.605.45 9.9-.035 4.018-.208 8.494 0 13.05.235 5.182.464 10.81 0 14.4-.246 1.912-1.186 3.482-1.8 5.4-.548 1.71-1.472 4.106-1.35 5.4.119 1.255.904 2.166 1.8 3.6.295.471 1.058.797 1.35 1.35.329.621.135 1.65.45 2.25 1.439 2.74 3.519 4.804 3.15 7.2-1.794 1.668-4.868 1.635-7.65 1.8-7.598.453-17.64.329-25.2 1.35-2.622.354-5.482 2.041-7.65 0-.25-1.834 1.412-2.405 2.7-3.15 1.356-.785 3.746-2.586 4.95-4.05.31-.376.131-1.008.45-1.35.687-.739 1.049-1.411 1.8-3.15.385-.894 1.182-1.672 1.35-2.25.446-1.54.172-3.405.45-5.4.437-3.148.81-6.365 1.35-10.35.197-1.454.77-2.954.9-4.5.695-8.234.032-17.36.45-26.55.266-5.855.242-12.03 0-17.55-.274-6.235-2.252-11.96-.9-17.55.154-.635.832-1.478.9-2.25.132-1.521-.339-3.664-.45-5.4-.259-4.041-1.506-11.02-.9-15.3.461-3.26 2.32-5.195 1.8-8.1-.49-2.732-3.29-4.559-6.3-4.95-4.018-.521-8.794 1.605-9.9-2.25-.05-1.546 1.196-2.24 2.25-2.7 2.192-.956 5.425-.656 9-.9 6.646-.452 14.55-.45 22.5-.45 2.309 0 4.579-.091 6.75 0 1.779.075 4.001-.515 5.4.9M646.891 338.388c2.176.806 4.239 1.291 6.3 1.8 2.308.569 4.76-.079 7.2.45 1.205.261 3.006 1.458 3.6 1.8 1.144.661 1.946.826 2.7 1.8.409.527.378 1.565.9 2.25.949 1.245 2.069 1.874 2.7 3.15.696 1.406 1.248 3.819 1.8 5.85 2.344 8.614 1.386 23.76.9 34.2-.166 3.57.35 7.519-.45 9.45-.366.884-1.61 1.741-2.7 2.7-2.115 1.859-4.428 3.782-6.3 5.4-1.115.962-2.202 2.202-3.15 2.7-1.189.625-2.858.376-4.05.9-.131.058-.304.791-.45.9-.354.265-1.031.246-1.35.45-.681.434-1.321 1.058-1.8 1.35-.728.445-1.605.489-2.25.9-.782.499-1.038 1.002-1.8 1.35-2.2 1.005-4.78 1.685-7.2 1.8-4.131 3.221-13.66 3.974-18.9 3.6-3.832-.274-8.256-.34-10.35-.9-2.496-.668-5.005-2.53-7.65-4.05-1.581-.909-3.466-2.014-4.5-2.7-.403-.268-.569-.673-.9-.9-.569-.39-1.815-.547-2.25-.9-1.518-1.229-3.866-3.695-4.95-4.95-.576-.666-.786-1.594-1.35-2.25-1.019-1.186-2.135-2.341-3.15-3.6-.403-.497-.938-1.279-1.35-1.8-.598-.752-1.45-1.214-1.8-1.8-.613-1.025-.695-2.439-1.35-3.6-.626-1.109-1.631-2.076-2.25-3.15-.344-.596-.119-1.215-.45-1.8-.351-.623-1.11-.861-1.35-1.35-.704-1.426-.561-2.882-1.35-4.05-1.251-1.856-4.339-2.836-4.95-4.95.575-2.001 2.444-3.19 2.7-5.4.11-.948-.701-2.359-.9-3.6-.223-1.395-.296-3.208-.45-4.5-.338-2.846-.879-5.851-.9-8.55-.021-2.785.66-5.62.9-8.55.312-3.805.204-8.721.9-11.25.242-.883.28-1.301.45-2.25.581-3.259 1.352-6.05 1.8-9 .237-1.57.111-3.452.45-4.95.484-2.138 1.672-4.354 2.25-6.3 1.14-3.84 3.25-6.841 4.05-10.8 1-.904 1.59-2.079 2.25-3.15.701-1.141 1.739-2.278 2.25-3.6.749-1.938.417-4.328 1.35-6.3.272-.579 1.075-1.744 1.8-2.7.512-.676 1.748-1.396 2.25-2.25.535-.909.901-2.149 1.35-3.15 1.942-4.341 3.26-5.172 6.75-8.1 1.758-1.474 3.264-3.054 4.95-4.05.974-.575 2.05-.759 3.15-1.35 2.534-1.36 6.274-4.431 8.55-4.95 1.344-.305 3.179.154 4.95 0 1.375-.12 2.726-.774 4.05-.9 6.475-.614 11.73-.328 17.1.45 3.788.547 8.071.92 10.35 1.8 2.371.916 4.7 1.804 6.75 2.7.149.065.274.795.45.9.297.179 1.215.391 1.35.45.905.395 1.452.52 2.25.9 2.2 1.046 4.47 2.024 5.85 3.15.621.506 1.135.892 1.8 1.35 1.251.861 2.782 1.455 4.05 2.25.942.591 1.7 1.435 2.25 1.8.406.269.566.669.9.9.59.409 1.716.56 2.25.9.194.124.245.746.45.9.415.311.99.131 1.35.45.771.685.954 1.731 1.8 2.7.751.859 2.058 1.508 2.7 2.25 1.708 1.976 3.242 4.328 4.05 5.85.729 1.375 1.004 3.432 1.8 4.95.62 1.182 1.11 3.644 3.6 3.15 2.438-1.295.415-3.975 0-5.85-1.676-7.571-2.561-14.16-4.95-21.15-1.488-4.354-3.064-8.902-4.05-13.5-.541-2.525-.558-4.935-1.35-7.2-.098-.279-.728-.946-.9-1.35-.755-1.762-1.482-3.499-1.8-4.95-.649-2.959.286-8.122-3.15-8.1-1.099.01-.701.204-1.8.9-5.222 3.118 1.15 15.18-3.6 18.9-1.76 1.359-3.65-.159-5.4-.45-2.078-.345-4.346-.289-6.3-.9-1.298-.406-2.372-1.769-3.6-2.25-.684-.268-1.975-.265-2.7-.45-.778-.199-1.701-.793-2.25-.9-4.316-.849-9.432-.224-14.4-.45-3.779-.171-7.409-.766-10.8-.45-2.87.267-6 1.372-9 1.8-1.632.232-3.332.28-4.95.45-1.729.181-3.958.07-5.4.45-.887.235-2.528 1.492-4.05 2.25-.682.339-1.475.456-2.25.9-.651.372-1.194 1.158-1.8 1.35-1.505.477-2.864-.049-4.05.45-.57.24-1.265.999-1.8 1.35-1.721 1.132-2.925 2.09-4.5 2.7-1.076.417-1.956.415-2.7.9-1.782 1.164-2.836 3.159-4.05 4.5-3.45.669-5.006 3.825-7.2 5.85-2.37 2.188-4.965 3.948-7.65 5.85-1.279 3.349-4.26 4.895-5.85 6.75-.392.457-.464 1.248-.9 1.8-.751.954-2.001 1.671-2.7 2.7-.365.539-.134 1.241-.45 1.8-.285.504-1.036.781-1.35 1.35-.321.585-.204 1.348-.45 1.8-.323.59-1.074.852-1.35 1.35-.62 1.116-.684 2.459-1.35 3.6-.571.977-1.776 1.702-2.25 2.7-.254.535-.196 1.56-.45 2.25-.248.672-.67 1.22-.9 1.8-.899 2.265-1.454 4.199-2.25 6.3-.825 2.179-2.048 4.265-2.25 6.3-.18 1.812.63 3.589.45 5.4-.201 2.021-1.778 3.936-2.25 5.85-.205.831-.274 2.162-.45 3.15-1.678 9.362-1.69 20.25-.9 31.05.555 7.582 2.452 16.71 4.5 22.05.271.707.182 1.118.45 1.8.21.536.731.92.9 1.35.901 2.286 1.62 6.072 2.7 7.2.361.377.534.967.9 1.35.33.344.141.461.45.9 1.284 1.826 3.014 3.158 4.05 4.95.662 1.148.749 2.365 1.35 3.15.281.366.98.151 1.35.45.335.27.6 1.025.9 1.35 1.572 1.7 2.58 3.174 4.05 4.5 2.611 2.356 4.241 4.021 7.2 5.85 1.604.991 4.048 2.691 5.4 3.15 1.912.647 4.158.292 6.3.9.902.255 1.815.999 2.7 1.35 5.356 2.126 11.3 2.88 17.55 3.6 2.61.3 5.349.919 7.65.9 1.342-.011 2.621-.841 4.05-.9 2.396-.1 4.876.665 7.2.45 1.456-.135 3.379-.894 5.4-1.35 4.944-1.114 10.03-1.961 13.95-3.15 2.996-.91 4.072-1.882 6.3-3.15 4.024-2.29 8.231-3.712 12.15-5.85 3.389-1.849 7.499-4.095 10.35-5.85 1.704-1.048 3.736-1.631 5.4-2.7 1.7-1.091 3.038-2.955 4.95-4.5 1.611-1.301 2.932-1.894 4.5-2.7 1.595-.82 2.889-2.439 4.05-3.6.722-.723 1.42-1.789 2.25-2.7 1.9-2.084 4.035-3.59 4.5-5.4.712-2.772-.325-6.144-.45-9-.469-10.64.675-23.03-.45-33.3.9-1.951 2.411-3.289 3.15-5.4 1.724-3.375 4.195-6.004 7.65-7.65 2.629-1.131 6.555 1.252 6.75-2.7-1.225-2.965-4.785-1.909-7.2-1.8-6.67.301-12.6.693-18.45 1.35-3.185.357-6.369.163-9.45.45-1.796.168-3.679.709-5.4.9-5.491.61-10.5.568-15.3 1.35-.961.156-1.778.787-2.7.9-1.986.244-4.271.105-6.3.45-1.259.215-3.121-.061-4.181.876-.366.324-3.459.349-3.459.349-4.499-1.342-11.91 1.212-7.66 5.525 4.322.142 6.869-1.494 8.489-4.056 0 0 1.431-.388 1.861-.444M201.391 466.388c2.014 4.494.426 7.675-2.25 9.45-1.022.677-3.165 1.665-4.5 3.15-1.054 1.171-2.264 4.562-3.6 7.2-1.078 2.126-2.876 5.551.9 7.2 2.692 1.176 7.925.642 12.15.45 7.798-.355 18.19.235 26.55-.45 7.061-.579 16.89-.339 22.95 0 1.142.064 2.109.028 3.15 0 8.674-.228 17.35-.889 25.2-.9 3.076-.01 7.588.954 10.8.9 2.256-.037 4.516-.761 6.75-.9 2.709-.168 5.285.165 8.1 0 2.356-.139 4.874-.794 7.2-.9 4.012-.183 7.811.17 11.7 0 8.686-.383 16.3-.9 25.65-.9 5.089 0 9.996.365 14.85 0 1.428-.107 3.588-.76 5.4-.9 2.584-.199 5.684.621 7.65 0 1.179-.374 2.432-1.608 3.15-2.7.657-1.002.031-2.136.45-2.7 1.239-1.666 5.411-.589 5.85 2.7.396 2.97-2.561 4.746-4.5 6.75-2.116 2.186-3.589 4.539-4.95 5.85-1.029.991-2.288 1.388-3.15 2.25-.96.96-1.336 2.099-2.25 3.15-1.796 2.068-3.904 3.472-4.95 5.85-1.415.535-2.381 1.519-4.05 1.8-2.13 2.445-3.931 5.026-6.3 7.2-2.255 2.07-5.185 3.574-6.3 6.75-1.566.784-3.064 1.734-4.5 2.7-3.355 2.258-6.534 4.882-9.9 7.65-1.736 1.428-3.042 3.566-4.95 5.4-.614.59-1.622.781-2.25 1.35-2.494 2.259-5.085 6.194-9 7.65-2.092 3.438-5.242 5.87-8.1 8.55-6.356 5.961-12.87 12.12-19.35 18.45-1.269 1.239-2.511 2.636-4.05 4.05-.71.652-1.551 1.142-2.25 1.8-1.492 1.402-2.602 3.068-4.05 4.5-1.355 1.341-3.116 2.291-4.5 3.6-1.091 1.031-1.805 2.552-3.15 3.6-.746.581-1.371.86-2.25 1.8-.753.804-1.546 2.081-2.7 3.15-1.174 1.086-2.309 1.942-3.6 3.15-1.365 1.276-3.78 2.862-5.4 4.5-.76.769-1.058 1.905-1.8 2.7-1.69 1.81-4.719 3.242-6.75 5.4-1.24 1.316-1.925 3.156-3.15 4.5-1.906 2.09-5.122 3.012-6.3 6.3-3.931 2.314-6.711 5.909-9.9 9-1.234 1.196-2.121 2.369-3.6 3.6-1.69 1.407-4.342 3.155-5.4 5.85-1.935.423-2.942 2.334-4.5 3.6-2.779 2.26-5.774 3.421-6.75 7.65-1.49.76-2.858 1.642-4.05 2.7-1.342.908-3.854.646-4.05 2.7 2.28 3.175 5.919.42 9 0 1.622-.221 3.442.165 5.4 0 3.922-.33 8.959-1.178 13.95-1.8a169.92 169.92 0 0 1 9.45-.9c5.512-.375 10.26-1.078 14.85.45 2.564-.465 4.751-2.424 7.65-2.7 4.381-.418 10.15.062 15.75-.9 3.359-.577 6.704-2.128 10.35-2.7 1.916-.3 4.314-.245 6.3-.45 6.602-.684 15.84-1.918 22.95-2.7 2.029-.223 4.042-.18 5.85-.449 3.118-.461 6.906-1.534 10.35-2.25 4.101-.854 8.211-1.17 10.35-2.25 2.828-1.427 3.624-4.847 8.1-4.95 3.176-1.944 5.899-4.656 9.45-6.75.972-.574 1.92-2.515 3.6-.9 1.69 3.861-2.049 6.155-3.6 9-1.365 2.501-1.958 5.87-3.6 8.55-.389.635-1.515 1.136-1.8 1.8-.549 1.277-.253 3.148-.9 4.5-.83 1.731-2.81 3.086-3.6 4.95-.524 1.235-1.02 2.974-.9 4.5-1.28 1.89-3.331 3.04-4.5 5.4-1.401 2.83-1.139 6.844-3.6 9 .041 2.892-.459 5.241-2.25 6.3-3.69-1.204-2.168-4.619-.9-7.2.817-1.665.952-3.217.9-6.75-.005-.33-.033-1.06 0-1.35.362-3.26-2.465-8.125-5.85-8.55-2.521-.317-5.514 2.292-8.1 2.7-1.161.184-2.314-.485-3.6-.45-1.368.036-2.869.82-4.05.9-3.72.254-7.596-.227-11.7 0-2.948.164-5.889.641-9 .9-5.705.473-11.75.53-18 .9-4.034.24-8.185.72-12.15.9-7.669.348-15.6-.559-23.4 0-5.474.392-10.77 1.491-16.2 1.8-5.141.293-10.06-.263-14.85.45-1.832.273-3.856 1.147-5.85 1.35-4.281.438-8.326.316-12.6.899-1.074.149-2.431.329-3.6.451-5.324.554-10.94.36-15.75 1.35-1.516.313-2.966 1.272-4.5 1.8-.801.275-1.746.126-2.7.45-.858.292-1.481.854-2.25.9-1.8.105-3.32-.382-4.95-.9-2.434.091-4.199 2.83-6.75 1.35.111-1.875.685-3.07 1.35-4.95 1.635-4.62 9.394-5.127 10.35-11.25 1.446-.185 2.35-1.472 3.6-2.25.986-.612 1.88-1.295 3.15-2.25.71-.533 1.814-.897 2.25-1.35 1.362-1.418 1.849-3.429 3.15-4.95.696-.814 1.918-1.087 2.7-1.8.37-.338.541-.992.9-1.35.366-.366.995-.528 1.35-.9.722-.757 1.206-1.893 1.8-2.7.112-.152.839-.312.9-.45.104-.23-.138-.692 0-.9.111-.166.835-.303.9-.45.385-.854.841-1.499 1.8-2.25.351-.275.955-.153 1.35-.45.211-.159.249-.766.45-.9 1.448-.962 2.945-.933 4.05-2.25 1.274-1.522 1.534-3.92 2.25-5.85 1.455-1.01 2.515-2.425 4.05-3.6 1.518-1.16 3.149-2.998 4.95-4.5.132-.11.326-.844.45-.9 3.672-1.655 7.638-6.198 10.8-9.45 2.196-2.258 4.662-5.082 7.65-7.2.497-.352 1.314-.072 1.8-.45.394-.305.494-1.005.9-1.35 1.615-1.375 3.328-3.068 4.95-4.5 1.805-1.594 3.26-3.548 4.95-4.5 1.989-1.12 4.726-1.062 6.75-2.25 1.659-1.67 2.826-3.716 4.05-5.85.344-.599.539-1.76.9-2.25 1.26-1.714 3.555-3.456 5.4-5.4.861-.907 1.865-1.66 2.7-2.7.837-1.042 1.399-2.27 2.25-3.15 2.038-2.1 4.834-3.695 6.75-5.85 1.498-1.685 2.518-3.91 4.05-5.4 1.455-1.415 3.361-2.239 4.95-3.6 1.381-1.182 2.669-2.828 4.05-4.05.29-.257.639-.2.9-.45.182-.176.856-.856 1.35-1.35.325-.325.536-1.096.9-1.35.435-.304.97-.13 1.35-.45 1.492-1.254 3.085-2.3 4.5-3.6.696-.639 1.095-1.61 1.8-2.25 1.056-.957 2.359-1.54 3.6-2.7.777-.726 2.055-1.695 3.15-2.7 1.452-1.334 2.562-2.58 4.05-4.05 1.319-1.302 2.705-2.796 4.5-3.6 1.295-2.616 4.174-3.84 6.3-5.85 2.146-2.029 4.81-4.75 7.2-7.2.702-.72 1.669-2.1 2.7-3.15 1.304-1.329 2.674-2.814 4.05-4.05 2.214-1.989 4.086-3.525 6.3-5.85.331-.349.529-1.06.9-1.35 1.495-1.165 4.375-2.259 4.95-4.95-2.966-1.696-7.308-.812-11.25-.45-1.911.176-3.801.258-5.85.45-1.888.176-3.95.256-5.85.45-2.61.268-5.022 1.352-7.65 1.35-2.129 0-4.186-.969-6.3-.9-2.489.081-4.88 1.515-7.65 1.8-1.434.148-3.05-.156-4.5 0-2.641.284-5.362 1.151-8.1 1.35-2.249.164-4.619-.142-6.75 0-2.08.14-3.914.759-5.85.9-2.899.21-6.005-.331-9.45 0-2.399.23-3.225.303-5.4-.9-1.289-.712-1.456-1.44-3.15-1.35-1.374.074-1.651.424-2.25.9-1.408 1.12-2.289 3.83-4.5 4.5-.859.26-1.636-.424-2.7-.45-2.039-.05-4.26 1.085-6.75 1.35-1.962.209-3.745-.214-5.4 0-1.928.249-3.762 1.402-5.85 1.8-3.719.71-8.085.449-12.15.9-3.801.423-7.584.83-11.25 1.35-3.8.54-7.621 1.08-11.25 1.8-1.628.324-3.331.985-4.95 1.35-1.865.42-3.755.459-5.4.9-2.211.594-4.604 1.854-6.75 2.7-.629.248-1.658.18-2.25.45-.545.249-.789.629-1.35.9-1.156.561-2.399.821-3.15 1.35-1.125.793-1.971 2.04-3.15 3.15-.964.909-2.241 1.87-3.15 2.7-.888.81-1.714 2.286-2.7 3.15-.83.728-2.004 2.468-3.6 1.35-1.242-3.582 1.931-5.996 3.6-8.1 1.742-2.458 2.94-5.46 5.4-7.2.339-1.664.954-2.995 1.8-4.5.777-1.382 1.836-2.214 2.7-3.6.394-.631.48-1.516.9-2.25.41-.715 1.011-1.15 1.35-1.8.687-1.319.935-3.184 1.8-4.5.291-.442 1.346-.776 1.8-1.35.53-.67.44-1.274.9-1.8.81-.925 2.031-1.606 2.7-2.7 1.179-1.925 1.454-4.559 2.7-6.75.364-.639 1.62-1.63 2.25-2.7.55-.935.784-2.365 1.35-3.15 1.038-1.44 2.669-2.154 3.6-3.6.976-1.516 1.719-4.089 2.7-5.85.461-.83 1.246-1.792 1.8-2.7.571-.936.801-2.109 1.35-2.7.264-.284 1.062-.182 1.35-.45.849-.79 2.682-2.025 4.95-.9M669.344 496.188c-1.165.052-2.39.416-3.594.5-6.12.424-13.654 1.294-21.156 1.812-10.17.701-20.601-.014-27 2.25-.951.336-4.049.091-3.156 2.25 2.828 1.226 6.052 1.244 9 1.781 4.298.784 7.61 2.864 9.468 6.75.834 1.744 1.048 4.57 1.782 7.219.638 2.302 1.774 4.519 2.25 6.75.271 1.279.238 2.62.468 4.031.194 1.186.633 2.339.875 3.594 1.645 8.52 1.083 17.227 1.375 26.563.254 8.07 1.526 15.774 1.344 23.843-.048 2.115-.589 4.601-.469 6.75.118 2.11 1.099 4.118 1.375 6.313.561 4.446.09 9.206.438 13.5.241 2.981 1.046 6.195 1.344 9 .17 1.606.438 3.397.468 4.937.026 1.349.635 3.568-.906 4.5-2.3-.55-2.778-2.935-4.062-4.5-1.036-1.709-2.9-2.703-4.032-4.5-.696-1.105-.801-2.517-1.375-3.593-.764-1.43-1.747-2.479-2.25-3.594-.067-.15-.765-.298-.875-.469-.269-.416-.617-1.28-.906-1.781-.665-1.152-1.091-2.478-1.812-3.594-.636-.982-1.58-1.729-2.25-2.719-.383-.565-.527-1.213-.907-1.781-.35-.522-1.007-.838-1.343-1.375-1.084-1.732-1.746-3.623-2.688-4.937-1.118-1.558-2.146-2.968-3.156-4.5-.79-1.2-1.654-1.85-2.25-2.688-.639-.899-1.198-2.224-1.813-3.156-.752-1.14-1.612-2.08-2.25-3.156-1.261-2.13-2.329-4.62-3.593-6.75-1.32-2.226-2.972-4.189-4.032-6.313-1.32-2.642-1.781-4.583-3.156-6.281-1.114-1.376-2.052-1.739-3.156-2.719-2.142-1.902-2.627-5.889-4.063-8.094-.658-1.009-1.95-1.753-2.687-2.687-.892-1.129-1.493-2.468-2.25-3.594-2.811-4.175-5.559-6.29-4.938-12.156-1.639-2.108-3.75-2.995-5.406-4.969-1.039-1.238-1.74-3.005-2.719-4.5-1.004-1.531-2.262-2.974-3.125-4.5-1.254-2.221-2.301-4.803-3.625-7.187-2.169-3.906-3.41-7.899-6.281-10.344-2.874-2.448-3.741-2.104-7.656-1.813-1.805.134-3.63-.281-4.938 0-1.575.338-3.054 1.545-4.5 1.813-2.744.506-5.836-.165-9 0-4.324.225-9.049.896-13.5 1.344-2.016.202-4.197.625-6.312.906-1.894.252-5.36-1.15-5.844 1.781 1.19 3.294 5.222 1.315 7.188 1.375.756.022 1.834.335 2.718.438 3.494.402 9.17.264 11.688 1.343 5.961 2.555 7.846 2.777 10.812 8.563 1.22 2.379 2.781 5.228 3.125 7.187.94 5.36-.456 12.205-.437 18.907.016 5.77 1.07 12.189 1.344 18.437.313 7.13-.738 14.531 0 20.25.37 2.87 2.843 6.658 2.718 9-.062 1.175-.8 2.027-1.375 3.156-.616 1.208-1.153 2.117-1.343 3.157-.792 4.32.248 9.199.468 13.937.366 7.87-.215 15.625-.906 21.625-.718 6.23-1.68 13.168-2.719 18-.331 1.537-.136 2.998-.437 4.031-.718 2.467-2.792 5.573-3.594 7.657-.484 1.254-.442 2.49-.906 3.156-.84 1.209-3.189 2.488-4.063 3.156-.599.458-.831.848-1.343 1.344-1.682 1.632-3.667 2.871-4.032 6.281 2.872.028 5.56.065 9-.875 2.268-.619 4.152-2.257 6.75-3.156 2.064-.714 4.668-1.233 7.188-1.813 5.18-1.189 10.016-1.984 15.75-2.687 6.23-.765 11.212-1.121 16.656-2.25 1.254-.26 2.731.349 4.031-.469 1.039-.653 1.514-1.683 1.375-3.594-2.921-2.05-6.498-.26-9.468-.437-3.87-.23-7.796-1.92-11.25-3.156-2.92-1.046-5.59-2.195-8.094-2.688-.89-.175-2.365.519-2.688-.906.527-3.895.095-8.004.438-12.156.145-1.758.775-3.582.906-5.407 1.076-15.03-.27-32.046.438-48.156.272-6.19.387-12.659 0-18.437-.136-2.022-.864-4.249-.907-6.313-.054-2.584.455-5.463.469-8.094.015-2.585-.608-5.551.906-7.656.764.638 1.653 1.111 2.25 1.813.759.89.822 1.844 1.344 2.687 1.72 2.779 3.585 6.617 5.406 8.563a20.639 20.639 0 0 1 2.688 3.593c.524.891.821 1.86 1.344 2.719 2.02 3.321 4.257 6.485 6.312 9.875 2.526 4.166 5.205 8.975 7.656 12.625.59.879 1.225 1.41 1.782 2.25 1.086 1.642 2.203 3.312 3.156 4.938 1.066 1.82 1.761 3.912 2.687 5.406.9 1.452 2.193 2.865 2.719 4.031.066.147.795.3.906.469.836 1.272 1.485 3.701 2.25 4.5.31.324.138.507.438.906 1.106 1.471 2.901 2.427 4.062 4.031.563.778.8 1.955 1.344 2.719 1.751 2.46 4.091 4.27 4.938 7.188.986 2.034 2.901 2.931 4.062 4.937.751 1.298.877 3.11 1.781 4.5.57.877 1.53 1.421 2.25 2.25.669.77 1.152 1.874 1.813 2.719 2.171 2.772 4.474 5.497 5.844 8.531.066.146.795.301.906.469.137.206-.104.676 0 .906.067.149.796.266.906.438.575.89.597 1.566.906 2.25.07.156.768.255.875.437.531.902.781 2.385 1.375 3.156 1.566 2.032 3.855 3.291 5.375 5.407.573.798.846 1.745 1.375 2.687 1.451 2.584 4.125 4.55 5.375 6.75.849 1.494 1.012 3.579 1.813 4.969.48.831 1.887 2.308 2.25 2.687.361.377.54.961.906 1.344 1.585 1.655 1.952 5.098 4.938 4.969 1.99-1.319 2.011-3.496 2.25-5.406.356-2.85-.293-5.884-.438-9-.295-6.35-.505-12.112-.906-18-.201-2.942-.768-5.768-.906-8.563-.362-7.27.541-14.734.468-22.031-.038-3.78-1.317-7.521-1.375-11.25-.029-1.921.617-3.925.469-5.844-.21-2.724-1.711-5.401-1.812-8.125-.099-2.671.896-5.439.906-8.094.01-2.72-.906-5.637-.906-8.531 0-1.952.47-3.851.468-5.875-.009-5.75-.446-12.519-.468-17.531-.026-5.479 1.353-10.832.906-15.313-.271-2.71-1.286-5.188-1.344-7.656-.116-4.981 1.919-9.215 1.781-13.937-.052-1.822-1.202-3.985-.875-5.844.286-1.624 2.009-3.339 3.594-4.969 3.424-3.522 6.703-5.534 10.344-8.094.375-.264.525-1.069.906-1.343 1.494-1.076 4.991-.983 4.5-3.594-.886-1.196-1.991-1.459-3.156-1.406zM557.281 658.375c.555.814.83 1.725.844 2.594.002.114.007.231 0 .343-.01 2.24-1.697 4.241-4.437 4.063-.421-.51-.624-1.113-.688-1.75-.017-.102-.023-.209-.031-.313a2.563 2.563 0 0 1 0-.124c-.007-.146.022-.291.031-.438.129-2.158 1.908-4.421 4.281-4.375z"/><path d="M452.906 498.656c-2.129-.076-4.092.295-5.812 1.344-.638.389-1.069 1.403-1.813 1.781-1.479.752-3.604 1.262-5.375 1.813-2.806.874-5.865 1.672-8.125 2.25-3.635.928-3.846 1.135-6.281 2.687-3.549 2.261-9.089 4.168-11.719 6.313-.402.327-.879.585-1.343.906-2.062 1.425-3.248 2.783-4.938 4.031-1.075.794-2.606 1.367-3.594 1.813-.146.066-.302.795-.468.906-.208.139-.677-.102-.907 0-.121.054-.307.764-.437.875-1.67 1.421-3.293 2.899-4.938 4.063-1.701 1.202-2.73 1.986-3.625 3.156-.848 1.108-1.581 1.814-2.25 2.687-.395.517-.913.875-1.343 1.344-1.872 2.038-3.538 4.179-4.5 6.313-.064.142-.796.276-.907.437-.405.584-.422 1.206-.875 1.813-.702.944-1.617 1.706-2.25 2.687-.584.905-1.2 2.176-1.812 3.156-1.646 2.635-1.912 3.385-3.156 6.313-1.272 2.99-2.246 6.019-3.157 9.437-.554 2.076-.869 4.371-1.343 6.75-.58 2.902-1.326 5.459-.907 7.657.675 3.544 2.869 2.822 3.157 6.312-.362 1.139-1.84 1.129-2.688 1.781-1.99 2.295-1.544 3.558-1.812 7.219-.086 1.166-.483 2.6-.438 3.594.156 3.444 1.819 8.285 2.688 11.25.854 2.914 1.616 4.49 2.718 6.75.509 1.041 1.286 2.075 1.782 3.156 1.114 2.437 1.586 5.114 2.718 7.188 1.479 2.708 5.03 6.22 6.282 9 .063.142.793.276.906.437.441.636.536 1.446.906 1.813.288.284 1.39.586 1.781.906.213.175.26.712.469.906.359.334.926.131 1.344.438 3.648 2.68 7.161 5.487 10.812 7.656 4.191 2.49 8.85 4.252 13.032 5.406 1.666.46 3.535.352 5.406.875 2.982.836 5.524 2.646 8.562 2.719 2.328.055 5.564-.908 8.532-1.344 2.924-.431 5.884-.831 8.562-1.375 4.092-.83 8.587-1.931 12.156-2.687 4.402-.934 6.21-2.22 9.875-3.594 1.93-.723 5.304-1.114 6.75-1.813.94-.454 1.295-1.505 2.25-2.25 1.474-1.15 3.366-1.991 4.5-2.687 1.769-1.085 3.619-1.8 4.969-2.719 1.785-1.217 3.032-3.327 4.938-4.937.956-.809 2.181-1.008 3.156-1.813 2.488-2.054 3.996-4.557 5.844-6.75.266-.316.683-.583.906-.875.241-.313.155-1.085.437-1.375.239-.245 1.118-.238 1.375-.437.379-.296.511-1.016.875-1.344 1.055-1.254 1.97-2.877 2.719-3.594.941-.902 1.43-1.785 2.25-2.719 1.341-1.526 2.266-1.973 3.156-3.593.384-.7.52-1.733.875-2.25.909-1.324 2.529-2.025 3.157-3.157.39-.704.492-2.183.906-3.156 1.515-3.565 3.761-7.082 4.5-10.781.444-2.228 1.15-4.046 1.344-5.406.183-1.296-.219-2.304 0-3.594.654-3.87 2.128-7.947 2.25-11.719.068-2.156-.203-4.869-.438-7.187-.342-3.386-1.17-6.931-1.812-9.907-.71-3.284-1.603-6.682-2.688-9.437-.662-1.681-1.89-3.261-2.719-4.969-1.552-3.201-2.942-6.866-4.937-9-1.135-1.214-2.023-2.528-2.688-3.594-.404-.646-.682-1.546-.906-1.781-1.184-1.235-2.193-2.161-3.594-3.625-.89-.93-.937-1.713-1.812-2.25-.489-.301-.525-.535-.906-.875-.534-.476-1.283-.511-1.782-.906-.661-.522-.849-1.326-1.375-1.813-2.375-2.2-3.155-3.112-5.843-4.5-1.814-.936-4.392-1.802-5.844-2.687-.366-.224-.535-1.096-.906-1.344-.54-.36-1.204-.188-1.782-.469-1.912-.934-5.413-1.452-8.562-2.25-2.655-.672-5.45-1.172-8.094-1.781-5.198-1.197-10.659-3.426-15.344-3.594zm-9.218 14.844c1.271.001 2.544.132 3.843.438 1.484.348 2.922 1.574 4.5 1.812 2.245.339 4.65-.22 6.75 0 1.496.156 3.505.736 5.407 1.344 2.226.712 4.717 1.541 6.312 2.687.156.112.299.845.438.907 1.238.558 3.262 1.493 4.5 2.687.946.914 1.87 2.046 3.156 3.156 1.509 1.302 3.05 2.543 4.5 4.063 1.379 1.445 3.258 2.879 4.062 4.031.371.534.15 1.197.438 1.813.469 1.004 1.472 2.661 2.25 4.062.452.814.822 1.806 1.344 2.688.478.806 1.467 1.48 1.812 2.25.464 1.034.367 2.781.906 4.062.404.961 1.429 1.76 1.782 2.688.448 1.178.506 2.852.906 4.062.43 1.301 1.157 2.186 1.344 3.125.592 2.972.203 6.499.468 9.469.268 2.984 1.134 5.596 1.344 8.094.312 3.694.275 7.839 0 11.687-.1 1.39-.255 2.787-.438 4.187l-.031.25a75.102 75.102 0 0 1-.281 1.876c-.013.082-.018.167-.031.25-.1.616-.197 1.228-.313 1.843-.058.313-.125.625-.187.938-.078.385-.167.773-.25 1.156a70.456 70.456 0 0 1-.438 1.937l-.031.126-.062.25a76.337 76.337 0 0 1-.469 1.781c-.023.083-.039.166-.063.25-1.709 6.108-4.207 11.85-7.375 16.469-.075.109-.095.225-.125.343-.004.034-.026.061-.031.094-.016.086-.02.165-.031.25-.008.032-.022.063-.032.094-.031.201-.071.404-.218.562-.439.472-1.512.931-2.25 1.813-.931 1.112-1.381 2.576-2.25 3.594-.82.959-2.222 1.639-3.156 2.687-.927 1.039-1.426 2.472-2.25 3.156-.334.278-.618.193-.907.469-1.301 1.248-4.557 2.706-7.187 4.031-2.274 1.144-4.442 2.461-6.75 3.157-2.542.767-5.778 1.032-8.563 1.812-2.072.582-4.775 2.059-7.625 2.25-4.828.324-10.625-1.607-14.875-3.156-.887-.324-1.841-.589-2.687-.906-3.838-1.444-7.986-3.538-11.688-5.844-.314-.195-1.027-.209-1.375-.469-.212-.159-.236-.74-.437-.875-1.649-1.104-3.624-2.592-5.406-3.625-.737-.426-2.395-1.044-3.157-1.781-.737-.713-1.099-1.722-1.781-2.719-.582-.849-1.294-1.881-1.812-2.687-.11-.173-.839-.289-.907-.438-.389-.862-.612-2.732-1.343-4.062-.106-.192-.834-.278-.907-.438-.691-1.534-1.875-2.591-3.593-3.625-1.192-.717-2.903-.817-4.032-2.25.003-.089.027-.164.032-.25.007-.264.007-.504.031-.75.006-.054.024-.103.031-.156.029-.269.08-.529.125-.781.106-.601.256-1.168.406-1.719.023-.083.04-.168.063-.25.131-.474.259-.95.375-1.438.018-.084.045-.165.062-.25.046-.206.057-.41.094-.625.046-.308.104-.634.125-.968.166-2.656-.685-5.174-.906-8.094-.213-2.805.227-5.915 0-8.563-.154-1.792-.836-3.596-.906-5.406-.074-1.908.099-3.685.374-5.406.014-.083.018-.168.032-.25.028-.177.063-.356.094-.531.072-.397.136-.8.218-1.188.097-.471.205-.915.313-1.375l.062-.25c.11-.459.229-.925.344-1.375l.063-.25c.252-.975.51-1.933.75-2.875l.062-.25c.49-1.952.91-3.734 1.375-5.5.022-.083.04-.167.063-.25.222-.838.468-1.673.718-2.5.3-.99.629-1.997 1-3 1.08-2.92 2.274-5.95 3.594-9 .668-1.541 1.11-2.683 1.781-4.031 1.11-2.228 2.833-4.232 4.063-6.75.332-.682.532-1.719.906-2.25 1.437-2.045 4.705-3.463 5.688-6.532.002-.009-.003-.021 0-.031.04-.127.061-.273.093-.406.02-.082.046-.165.063-.25 2.36-.939 4.008-3.046 5.844-4.5.548-.434 1.223-.405 1.812-.875.756-.604 1.548-1.378 2.688-2.25.146-.111.336-.846.468-.906 1.974-.89 4.722-2.604 7.188-3.594 2.685-1.077 6.278-2.252 10.094-2.25zM804.361 544.388c-3.434.868-3.956-2.076-4.95-4.05-.915-1.819-1.682-4.224-2.7-5.85-1.888-3.019-4.126-4.578-6.75-6.75-4.994 0-8.978-3.061-13.95-4.5-1.526-.441-4.436-.674-7.2-.9-10.12-.831-24.69-.74-35.1.45-3.442.394-7.155.686-9.45 2.7-.874 16.34-1.498 32.58-.45 49.05 4.878 1.194 10.19-.212 16.2 0 1.705.06 3.356.511 4.95.45 2.486-.096 5.045-1.16 7.65-1.35 3.124-.227 6.218.143 9.45 0 5.315-.234 10.85-1.101 16.2-1.35 5.944-.276 11.8-.185 16.2-1.35 4.916-1.301 8.694-5.048 13.5-3.6 1.758 2.738-.205 5.748-1.35 8.1-2.658 5.454-4.701 7.921-8.55 13.95-1.362 2.132-3.081 6.25-4.95 6.3-1.214.033-2.308-.524-2.7-1.35-.159-.335.209-1.049 0-1.35-.801-1.156-1.274-2.104-2.25-2.7-.651-.399-4.265-1.132-5.85-1.35-2.041-.28-4.445-.354-6.3-.45-7.812-.401-17.07.115-26.1.45-8.831.328-17.58.55-24.75 1.8-2.054 6.734-.174 16.96-2.25 23.85-.811 2.694-2.366 4.305-3.6 6.3.547 1.253 1.12 2.481 2.25 3.15.846.255.55.987.9 1.8.137.32.861 1.175.9 1.35.474 2.139.445 5.639.45 8.1.019 10.38-1.161 22.61-.45 31.5 1.845 1.491 4.324.949 6.3.9 8.234-.201 14.86-2.815 22.5-4.5 1.016-.224 2.198-.213 3.15-.45 3.362-.84 9.289-2.398 13.5-3.15 5.25-.938 10.03-1.018 13.5-3.6 1.246-.927 2.265-2.188 4.05-3.15.514-.278.896-.186 1.35-.45.679-.394 1.266-.78 2.25-1.35 2.544-1.473 7.018-3.975 9-6.75 1.195-1.674 2.778-4.56 6.3-4.05 2.81 4.87-2.895 8.051-4.5 12.15-.589 1.505-.278 3.336-.9 4.95-.59 1.533-2.538 2.902-3.15 4.5-.626 1.631-.3 3.643-.901 4.95-.53 1.16-2.284 2.301-3.15 3.6-.313.47-.105.541-.45.9-.55.574-.432 2.08-.9 3.6-.545 1.773-2.407 5.432-5.4 5.4-1.088-2.513-.633-6.566-2.25-8.55-3.167-2.144-5.783.618-9 1.35-1.228.28-2.967.229-4.5.449-8.595 1.243-18.14 3.232-27.45 4.05-2.973.263-5.995.096-9 .45-2.61.308-5.1 1.125-7.65 1.35-9.001.797-17.55.255-24.75 2.7-2.533.862-4.398 2.455-6.75 2.7-1.713.18-4.404-.201-6.3-.449-1.451-.19-4.488.72-4.5-1.8.147-3.035 3.583-2.16 5.4-2.7 3.542-1.054 5.916-1.755 7.65-4.95.48-.884.8-2.13 1.35-3.15 1.189-2.196 2.81-4.046 3.15-5.85.185-.975-.474-2.349-.45-3.6.052-2.546.282-6.524.45-10.35.443-10.06.403-20.99.45-31.5.007-1.44-.492-2.609-.45-4.05.093-3.155.482-6.046.45-9-.03-2.999-.485-5.792-.45-8.55.02-1.512.087-4.066.45-5.85.376-1.842 1.786-3.376 1.8-4.95.02-2.04-1.674-3.785-2.25-6.3-.244-1.07-.355-3.084-.45-4.5-.232-3.525.198-7.666 0-12.15-.364-8.295-2.031-17.12-1.8-22.05.064-1.345.597-2.445.9-4.05.303-1.596.062-3.682.45-4.5 1.363-2.86 5.68-2.514 5.4-6.3-1.65-2.21-5.697.661-8.1-.9-1.947-2.704-2.867-6.434-3.15-10.8 1.862-2.024 4.645-1.53 7.2-1.8 2.55-.267 5.115-.785 7.65-.9 3.377-.152 6.602.236 9.9 0 3.117-.224 6.299-1.466 9.45-1.8 5.166-.545 11.01-.062 15.75-.45 11.25-.92 22.76.678 33.3-1.35 1.666-2.924.71-6.235 1.8-8.55.37-.785 2.789-1.892 5.4-1.35 2.007.416 3.982 3.044 4.95 5.4 1.06 2.576.952 5.975 1.8 8.55 1.097 3.33 4.365 7.625 5.85 11.25.543 1.325.75 2.74 1.35 4.05.307.671.49 1.532.9 2.25.258.449 1.073.811 1.35 1.35.726 1.402.722 2.788 1.35 4.05.913 1.835 4.039 4.284 1.8 7.2"/></g></svg>